<?xml version="1.0" encoding="UTF-8" standalone="no"?>
<svg
   xmlns:dc="http://purl.org/dc/elements/1.1/"
   xmlns:cc="http://creativecommons.org/ns#"
   xmlns:rdf="http://www.w3.org/1999/02/22-rdf-syntax-ns#"
   xmlns:svg="http://www.w3.org/2000/svg"
   xmlns="http://www.w3.org/2000/svg"
   xmlns:xlink="http://www.w3.org/1999/xlink"
   xmlns:sodipodi="http://sodipodi.sourceforge.net/DTD/sodipodi-0.dtd"
   xmlns:inkscape="http://www.inkscape.org/namespaces/inkscape"
   width="18"
   height="18"
   viewBox="0 0 17.999997 17.999999"
   version="1.1"
   id="svg195"
   sodipodi:docname="cbi_logo_sm.svg"
   inkscape:version="0.92.2 (unknown)">
  <metadata
     id="metadata199">
    <rdf:RDF>
      <cc:Work
         rdf:about="">
        <dc:format>image/svg+xml</dc:format>
        <dc:type
           rdf:resource="http://purl.org/dc/dcmitype/StillImage" />
        <dc:title>cbi-logo-stacked-rgb</dc:title>
      </cc:Work>
    </rdf:RDF>
  </metadata>
  <sodipodi:namedview
     pagecolor="#ffffff"
     bordercolor="#666666"
     borderopacity="1"
     objecttolerance="10"
     gridtolerance="10"
     guidetolerance="10"
     inkscape:pageopacity="0"
     inkscape:pageshadow="2"
     inkscape:window-width="1423"
     inkscape:window-height="704"
     id="namedview197"
     showgrid="false"
     inkscape:zoom="27.828596"
     inkscape:cx="9.6802714"
     inkscape:cy="8.5153982"
     inkscape:window-x="480"
     inkscape:window-y="381"
     inkscape:window-maximized="0"
     inkscape:current-layer="svg195" />
  <defs
     id="defs15">
    <style
       id="style2">.a{fill:#194d23;}.b{opacity:0.5;}.c{fill:#bfbfbf;}.d{fill:#142d19;}.e{opacity:0.1;}.f{fill:url(#a);}.g{fill:url(#b);}.h{fill:url(#c);}.i{fill:url(#d);}.j{fill:url(#e);}.k{fill:#809f3f;}.l{fill:url(#f);}.m{fill:url(#g);}</style>
    <linearGradient
       id="a"
       x1="200.46001"
       y1="81.449997"
       x2="220.97"
       y2="62.459999"
       gradientUnits="userSpaceOnUse">
      <stop
         offset="0.02"
         stop-color="#d6de23"
         id="stop4" />
      <stop
         offset="1"
         stop-color="#194d23"
         id="stop6" />
    </linearGradient>
    <linearGradient
       id="b"
       x1="129.7"
       y1="33.990002"
       x2="167.67"
       y2="53.779999"
       xlink:href="#a"
       gradientTransform="matrix(0.16748536,0,0,0.16748536,-21.982502,2.6388272)" />
    <linearGradient
       id="c"
       x1="144.39"
       y1="3.55"
       x2="171.97"
       y2="20.549999"
       xlink:href="#a"
       gradientTransform="matrix(0.16748536,0,0,0.16748536,-21.982502,2.6388272)" />
    <linearGradient
       id="d"
       x1="175.99001"
       y1="-3.8599999"
       x2="201.59"
       y2="23.35"
       xlink:href="#a"
       gradientTransform="matrix(0.16748536,0,0,0.16748536,-21.982502,2.6388272)" />
    <linearGradient
       id="e"
       x1="209.8"
       y1="1.8200001"
       x2="226.78"
       y2="30.209999"
       xlink:href="#a"
       gradientTransform="matrix(0.16748536,0,0,0.16748536,-21.982502,2.6388272)" />
    <linearGradient
       id="f"
       x1="153.09"
       y1="70.029999"
       x2="194.2"
       y2="63.82"
       xlink:href="#a"
       gradientTransform="matrix(0.16748536,0,0,0.16748536,-21.982502,2.6388272)" />
    <linearGradient
       id="g"
       x1="236.99001"
       y1="23.41"
       x2="235.66"
       y2="45.259998"
       xlink:href="#a"
       gradientTransform="matrix(0.16748536,0,0,0.16748536,-21.982502,2.6388272)" />
    <linearGradient
       inkscape:collect="always"
       xlink:href="#a"
       id="linearGradient6973"
       gradientUnits="userSpaceOnUse"
       x1="200.46001"
       y1="81.449997"
       x2="220.97"
       y2="62.459999"
       gradientTransform="matrix(0.16748536,0,0,0.16748536,-21.982502,2.6388272)" />
  </defs>
  <title
     id="title17">cbi-logo-stacked-rgb</title>
  <g
     class="b"
     id="g163"
     style="opacity:0.5"
     transform="matrix(0.16748535,0,0,0.16748535,-21.982501,2.6388272)">
    <path
       class="c"
       d="m 186,28.84 c -0.11,-0.11 -0.2,-0.23 -0.3,-0.35 v 0 h -0.19 l 0.1,-0.25 h 0.14 c 0,-0.16 -0.14,-0.08 -0.2,-0.16 l 0.17,-0.06 a 2.56,2.56 0 0 0 -0.12,-0.29 0.17,0.17 0 0 0 -0.12,-0.08 h -0.07 l -1.25,0.08 0.2,0.11 v 0.13 l 0.19,0.27 -0.12,0.1 v 0 h 0.15 c 0,0 0,0 0.07,0 v 0 0.09 0 l 0.17,-0.1 v 0.13 c 0.13,0 0.15,0.1 0.11,0.36 a 1.43,1.43 0 0 1 -0.19,0.2 c -0.14,0.09 -0.22,0.19 -0.1,0.35 0,0 0,0 0,0 -0.18,0 -0.36,0.17 -0.52,0 a 0.46,0.46 0 0 1 -0.07,0.12 c -0.06,0.05 -0.13,0.1 -0.07,0.18 0.06,0.08 0.13,0.14 0.24,0.06 a 0.29,0.29 0 0 1 0.12,0 h 0.17 v 0 l 0.05,-0.05 0.24,0.29 c 0,0 -0.06,0.08 0,0.12 a 1.71,1.71 0 0 0 0.25,0.14 l 0.48,0.25 c 0,-0.31 -0.28,-0.36 -0.33,-0.59 l 0.49,0.33 0.13,-0.26 c -0.08,-0.09 0,-0.29 -0.21,-0.39 -0.21,-0.1 -0.08,-0.12 -0.12,-0.19 v -0.06 l -0.07,-0.13 0.13,0.06 v -0.21 c 0.07,0.13 0.22,0.18 0.26,0.32 0.04,0.14 0.1,0.13 0.16,0.2 v 0 -0.22 c 0.14,0 0.23,-0.1 0.2,-0.19 h 0.16 l -0.17,-0.16 A 1.7,1.7 0 0 1 186,28.84 Z"
       id="path75"
       inkscape:connector-curvature="0"
       style="fill:#bfbfbf" />
    <path
       class="c"
       d="m 190.87,43.34 c 0,-0.1 -0.09,-0.11 -0.17,-0.11 a 0.47,0.47 0 0 1 -0.18,0 l -0.35,-0.2 c -0.16,-0.09 -0.33,0 -0.49,0 -0.16,0 -0.27,-0.06 -0.38,0.07 v 0 c 0,-0.07 -0.06,-0.18 -0.09,-0.18 -0.03,0 -0.24,-0.07 -0.36,-0.08 -0.12,-0.01 -0.19,0 -0.22,0.1 h -0.05 c 0.06,-0.2 0.05,-0.2 -0.15,-0.17 h -0.07 c 0,0 -0.07,0 -0.08,0 a 1.52,1.52 0 0 0 -0.11,0.15 v 0 a 0.78,0.78 0 0 1 0,-0.16 c 0,0 0.07,-0.07 0.1,-0.11 a 0.19,0.19 0 0 0 0,-0.29 c 0,0 -0.1,-0.08 -0.12,-0.14 a 0.45,0.45 0 0 0 -0.23,-0.27 0.81,0.81 0 0 0 -0.56,-0.13 0.48,0.48 0 0 1 -0.39,0 c 0,0 -0.09,0 -0.14,0 a 0.37,0.37 0 0 0 -0.46,-0.26 c 0,-0.23 -0.24,-0.11 -0.3,-0.24 l 0.11,-0.08 h -0.37 c 0,0 0,0 0,0 0,0 -0.18,0.15 -0.21,0.11 -0.03,-0.04 -0.2,0 -0.3,0 -0.1,0 -0.14,0.05 -0.15,-0.07 -0.01,-0.12 -0.05,0 -0.08,0 -0.03,0 -0.2,0 -0.23,-0.16 l -0.12,0.14 h 0.15 l -0.3,0.14 v -0.09 l 0.13,-0.13 c -0.1,-0.09 -0.16,0 -0.22,0 a 1.41,1.41 0 0 1 -0.32,0.21 c -0.07,0 -0.13,0 -0.15,0.1 a 2,2 0 0 0 0,0.21 0.24,0.24 0 0 0 -0.14,0.29 c -0.16,-0.22 -0.38,-0.3 -0.57,-0.17 a 0.28,0.28 0 0 1 -0.26,0.07 c -0.13,0 -0.36,-0.2 -0.36,-0.33 0,-0.13 0,-0.29 0,-0.44 a 0.9,0.9 0 0 0 0,-0.23 c 0,0 -0.09,0 -0.12,0 v -0.07 a 3.53,3.53 0 0 0 -0.38,0 3.4,3.4 0 0 1 -0.4,0.06 c 0.14,-0.15 0,-0.32 0.06,-0.47 h 0.08 c 0,0 0,0 0,0 a 0.9,0.9 0 0 1 0.12,-0.51 0.07,0.07 0 0 0 0,-0.06 c 0,0 0,0 -0.06,0 -0.06,0 -0.33,0.09 -0.49,0.14 -0.16,0.05 0,0.08 -0.06,0.13 l -0.13,0.4 a 1.17,1.17 0 0 0 -0.21,0 0.52,0.52 0 0 0 -0.16,0.08 c -0.1,0.07 -0.17,0 -0.25,0 -0.08,0 -0.29,-0.21 -0.36,-0.34 a 1.18,1.18 0 0 1 -0.1,-0.71 c 0,-0.12 0,-0.24 0,-0.36 0,-0.12 0,-0.17 0,-0.24 0,-0.07 0.06,-0.18 0.2,-0.19 a 0.18,0.18 0 0 0 0.17,-0.19 v 0 0 c 0.08,0 0.17,-0.08 0.23,-0.07 0.06,0.01 0.27,-0.09 0.36,0.06 v 0 h 0.21 c 0,0 -0.06,-0.11 -0.05,-0.16 0.01,-0.05 0.08,-0.08 0.13,-0.09 a 2.92,2.92 0 0 1 0.42,0 0.22,0.22 0 0 1 0.14,0.07 c 0,0.05 0.08,0.05 0.12,0 0.04,-0.05 0.12,-0.06 0.18,0 0.06,0.06 0.07,0 0.1,0.08 a 0.26,0.26 0 0 1 0,0.1 c 0,0.06 -0.05,0.11 0,0.18 a 1.52,1.52 0 0 1 0.22,0.37 c 0,0.05 0.1,0.09 0.13,0 a 0.65,0.65 0 0 0 0.06,-0.34 2.58,2.58 0 0 0 -0.17,-0.42 0.51,0.51 0 0 1 0.19,-0.67 3.63,3.63 0 0 0 0.33,-0.3 l 0.24,-0.2 v -0.06 l 0.16,-0.12 -0.12,-0.05 a 0.14,0.14 0 0 0 0,-0.18 1.92,1.92 0 0 1 -0.07,-0.28 h 0.06 l 0.06,0.19 c 0,-0.13 0.18,-0.25 0,-0.43 l 0.14,0.07 0.14,-0.38 0.27,-0.08 v 0 h -0.15 v 0 l 0.41,-0.14 v 0 l 0.13,-0.09 v 0 a 0.09,0.09 0 0 1 -0.13,-0.08 0.6,0.6 0 0 1 0.4,-0.48 l 0.28,-0.07 v 0 h -0.08 v 0 l 0.3,-0.1 c -0.09,0.13 -0.33,0.21 -0.08,0.42 l 0.2,-0.23 0.48,-0.22 v -0.07 h -0.29 a 0.26,0.26 0 0 1 -0.22,-0.34 c 0,0 0,-0.08 0,-0.13 v 0 l 0.09,-0.12 a 0.62,0.62 0 0 0 -0.13,-0.08 0.22,0.22 0 0 0 -0.14,0 1.12,1.12 0 0 0 -0.6,0.4 l -0.07,0.12 -0.08,-0.06 a 1.06,1.06 0 0 0 0.18,-0.15 0.77,0.77 0 0 1 0.36,-0.32 c 0,0 0,-0.06 0.07,-0.09 0.07,-0.03 0.1,-0.17 0.17,-0.17 0.22,0 0.45,0 0.67,0 a 0.5,0.5 0 0 0 0.47,-0.24 c 0,0 0.09,-0.06 0.13,-0.07 0.28,-0.11 0.34,-0.11 0.29,-0.39 0,-0.1 -0.11,-0.18 -0.17,-0.16 -0.06,0.02 0,-0.11 0,-0.11 a 1,1 0 0 0 -0.2,0 l 0.17,-0.1 -0.39,-0.16 c 0,-0.17 -0.22,-0.15 -0.26,-0.27 l 0.14,-0.14 -0.1,-0.11 c 0,0 0,0 0,0 a 0.11,0.11 0 0 0 -0.1,-0.15 c 0,-0.25 -0.18,-0.44 -0.19,-0.68 a 1.18,1.18 0 0 1 -0.5,0.67 2.23,2.23 0 0 1 -0.2,-0.19 0.32,0.32 0 0 1 0,-0.14 c 0,0 0,-0.06 0,-0.08 a 0.31,0.31 0 0 1 0.05,-0.28 0.35,0.35 0 0 0 0,-0.11 l -0.09,0.05 a 1.53,1.53 0 0 1 -0.31,-0.28 0.29,0.29 0 0 0 -0.31,-0.15 0.93,0.93 0 0 1 -0.27,0 c -0.09,0 -0.18,0 -0.22,0.06 a 0.57,0.57 0 0 0 0,0.22 v 0 l -0.11,0.23 c 0,0 0,0 0,0 0,0 0,0.15 0,0.22 a 2.7,2.7 0 0 1 -0.19,0.23 c -0.07,0.07 -0.07,0.12 0,0.18 0.07,0.06 0.12,0.27 0.16,0.41 a 0.82,0.82 0 0 1 0,0.19 h -0.07 a 4.05,4.05 0 0 1 -0.34,0.26 c -0.09,0.05 -0.16,0.08 -0.09,0.2 a 0.25,0.25 0 0 1 0,0.11 c 0,0.21 0,0.42 0,0.65 l -0.09,-0.12 -0.06,0.14 -0.11,-0.07 a 0.75,0.75 0 0 1 -0.11,-0.14 c 0,-0.08 -0.12,-0.16 -0.12,-0.24 a 4.05,4.05 0 0 1 0.08,-0.51 c 0,0 0,0 0,0 a 1.32,1.32 0 0 0 -0.25,0 c -0.21,0 -0.35,-0.12 -0.49,-0.24 a 3.3,3.3 0 0 0 -0.33,-0.21 c -0.15,-0.1 -0.26,0 -0.38,0 v 0 c 0.13,-0.17 0,-0.34 0,-0.53 l -0.18,0.07 a 2.49,2.49 0 0 1 0,-0.36 1,1 0 0 1 0.12,-0.29 c 0.05,-0.09 0.13,-0.17 0.18,-0.27 a 0.68,0.68 0 0 1 0.16,-0.17 c 0.05,-0.05 0.19,-0.1 0.11,-0.2 0.07,0 0.18,0 0.21,-0.05 0.03,-0.05 0,-0.15 0,-0.19 0,-0.04 0.11,0 0.14,0 a 0.54,0.54 0 0 0 0.11,-0.16 c 0.08,0.07 0.16,0.09 0.24,0 a 1.28,1.28 0 0 1 0.18,-0.21 0.1,0.1 0 0 0 0,-0.16 v 0 l 0.22,-0.21 v 0.12 l -0.06,0.23 c 0,0.09 -0.05,0.18 -0.08,0.26 a 0.91,0.91 0 0 1 -0.09,0.14 h 0.16 v 0.14 a 0.47,0.47 0 0 0 0.32,-0.23 c 0,0 0.05,-0.05 0.08,-0.08 l 0.12,0.18 a 0.28,0.28 0 0 0 0.13,0 0.19,0.19 0 0 0 0.12,-0.1 c 0,-0.07 0,-0.07 -0.1,-0.07 h -0.05 c 0,-0.24 -0.24,-0.29 -0.32,-0.46 v 0 0 -0.17 h -0.06 v 0 l -0.11,-0.15 c 0.09,0 0.19,0 0.2,0 0.01,0 0.16,0.08 0.24,0.06 0.08,-0.02 0.27,-0.2 0.37,-0.33 a 0.1,0.1 0 0 0 0,-0.09 c -0.08,-0.09 0,-0.21 -0.08,-0.32 0.24,0.07 0.19,-0.12 0.23,-0.23 0.04,-0.11 -0.12,-0.06 -0.13,-0.11 -0.01,-0.05 0,-0.11 -0.13,-0.1 -0.13,0.01 -0.12,0 -0.19,-0.06 a 0.06,0.06 0 0 0 -0.05,0 c 0,0.09 0,0.18 0,0.27 0,0.09 -0.1,0.07 -0.13,0.12 -0.03,0.05 -0.12,0.25 -0.19,0.37 A 0.13,0.13 0 0 1 182.88,29.05 0.1,0.1 0 0 1 182.8,29 c 0,-0.11 -0.1,-0.23 0,-0.32 0.1,-0.09 0,0 0,-0.06 l -0.1,-0.27 v 0 l -0.15,0.33 v 0 -0.33 l 0.07,-0.07 -0.26,-0.06 0.07,-0.11 h -0.42 a 0.54,0.54 0 0 0 0.21,0.13 l -0.19,0.18 v 0 h 0.09 a 0.26,0.26 0 0 1 -0.19,0.29 c -0.18,0.05 -0.18,0.16 -0.17,0.3 a 0.21,0.21 0 0 1 0,0.07 l -0.12,-0.16 0.13,-0.22 a 0.39,0.39 0 0 1 -0.13,0 0.36,0.36 0 0 1 -0.06,-0.11 c -0.14,0.05 -0.23,0.12 -0.2,0.28 h -0.15 a 0.45,0.45 0 0 0 -0.17,0 0.19,0.19 0 0 1 -0.27,-0.08 0.13,0.13 0 0 0 -0.08,-0.06 c -0.14,0 -0.17,-0.1 -0.18,-0.2 -0.01,-0.1 0,-0.2 -0.21,-0.14 h -0.09 l -0.23,0.1 c 0.08,0 0.12,0.1 0.15,0.09 a 1.77,1.77 0 0 0 0.21,-0.1 h 0.1 v 0 l -0.3,0.16 c -0.07,0 -0.14,0.06 -0.12,0.16 a 1.44,1.44 0 0 1 0,0.21 l -0.11,0.12 a 0.63,0.63 0 0 0 -0.16,-0.5 0.67,0.67 0 0 1 -0.71,0 c 0,-0.15 0.14,-0.14 0.24,-0.14 a 0.3,0.3 0 0 0 0,-0.1 15,15 0 0 0 -3.22,1.11 5.7,5.7 0 0 0 -2,1.6 0.38,0.38 0 0 1 0.33,0.1 c 0,0 0.12,0 0.2,0 l -0.07,0.1 c 0,0 0.08,0.11 0.12,0.11 0.04,0 0.06,0 0.07,0.08 0.01,0.08 0.09,0.23 0.22,0.24 0.13,0.01 0,0.17 0,0.22 a 0.63,0.63 0 0 1 0.06,0.37 0.21,0.21 0 0 0 0,0.07 v 0 l 0.05,-0.33 v 0.11 l 0.11,-0.15 c 0.07,-0.09 0.08,-0.17 0,-0.24 a 0.13,0.13 0 0 1 0,-0.09 c 0,-0.1 0,-0.19 0,-0.29 v 0 a 1.25,1.25 0 0 1 0,0.13 0.25,0.25 0 0 0 0.11,0.29 c 0.11,0.05 0,0.1 0,0.15 0,0.05 -0.07,0.13 0,0.19 0.07,0.06 0,0.08 0.07,0.11 0.07,0.03 -0.06,0 -0.09,-0.07 -0.03,-0.07 -0.09,-0.06 -0.12,-0.05 a 0.18,0.18 0 0 0 -0.12,0.09 0.71,0.71 0 0 0 0,0.2 h 0.06 c 0.08,0.07 0.06,0.15 0.05,0.24 -0.01,0.09 0.06,0.13 0.09,0.19 h 0.05 c 0,-0.07 0,-0.15 0,-0.22 0,-0.07 0,-0.17 -0.05,-0.26 -0.05,-0.09 0.16,0.06 0.12,0.17 -0.04,0.11 0,0.07 0.07,0.05 v 0.2 l 0.1,-0.06 v 0.13 l 0.15,-0.08 a 0.33,0.33 0 0 0 -0.07,0.27 c 0,0 0,0.06 0,0.09 a 1,1 0 0 0 0,0.11 h 0.08 0.16 c -0.05,0.06 -0.12,0.1 -0.12,0.13 a 0.64,0.64 0 0 0 0.08,0.21 c 0,0 0.06,0 0.06,0.08 a 1.25,1.25 0 0 1 0,0.2 0.16,0.16 0 0 0 0.16,0.19 v 0.1 h 0.25 c -0.06,0.22 0,0.28 0.15,0.24 0,0.15 0.15,0.27 0.07,0.43 l -0.35,-0.13 a 1.41,1.41 0 0 0 0,0.15 3.23,3.23 0 0 1 0,0.44 3.2,3.2 0 0 1 -0.09,0.46 c 0,0.17 -0.08,0.33 -0.11,0.5 -0.03,0.17 0,0.21 0,0.31 0,0.1 -0.08,0.21 0,0.31 0.08,0.1 0,0.06 0,0.09 0,0.03 0.09,0.23 0.14,0.34 h 0.07 a 1.15,1.15 0 0 0 0.13,0.55 c 0,0.07 0.08,0.15 0.11,0.21 0.03,0.06 0.27,0.11 0.4,0.18 a 0.28,0.28 0 0 1 0.11,0.13 c 0.09,0.21 0.17,0.42 0.26,0.63 0.2,0.13 0.23,0.21 0.16,0.44 l 0.13,0.06 a 0.31,0.31 0 0 1 0.23,0.33 0.12,0.12 0 0 0 0,0.08 l 0.37,0.29 c 0,0 0.06,-0.07 0,-0.08 a 0.71,0.71 0 0 0 -0.13,-0.15 c 0,0 -0.08,0 -0.09,-0.06 a 1.13,1.13 0 0 0 -0.19,-0.45 c -0.12,-0.15 -0.21,-0.32 -0.34,-0.47 a 0.64,0.64 0 0 1 -0.11,-0.44 0.34,0.34 0 0 1 0.29,0.26 1.83,1.83 0 0 0 0.47,0.63 0.49,0.49 0 0 0 0.14,0.08 c -0.08,0.08 -0.09,0.14 0,0.18 a 0.5,0.5 0 0 1 0.15,0.1 c 0,0 0.06,0.08 0.09,0.12 a 1.46,1.46 0 0 1 0.2,0.19 c 0.09,0.13 0.21,0.26 0.15,0.44 a 0.21,0.21 0 0 0 0.16,0.28 0.28,0.28 0 0 1 0.14,0.07 c 0.07,0.08 0.16,0.08 0.25,0.11 0.09,0.03 0.18,0.08 0.27,0.11 A 1.75,1.75 0 0 0 180,41 c 0.17,0 0.35,0.13 0.52,0 0.17,-0.13 0.19,-0.06 0.29,0 a 1.82,1.82 0 0 0 0.42,0.25 1.79,1.79 0 0 0 0.43,0.06 h 0.2 a 0.36,0.36 0 0 0 0.06,0.09 c 0.06,0.06 0.14,0.11 0.2,0.17 a 0.26,0.26 0 0 1 0.07,0.14 c 0,0.09 0.07,0.15 0.16,0.13 a 0.16,0.16 0 0 1 0.2,0.1 c 0,0.12 0.11,0.09 0.17,0.08 a 0.39,0.39 0 0 1 0.37,0.14 l 0.11,-0.09 -0.07,-0.1 0.09,-0.09 c 0,0 0.08,-0.08 0.09,-0.08 a 0.47,0.47 0 0 1 0.14,0.12 0.81,0.81 0 0 1 0.07,0.14 c 0.05,0.1 0.15,0.17 0.13,0.31 a 1.3,1.3 0 0 0 0.07,0.35 c -0.05,0.07 -0.17,0.15 -0.21,0.27 a 0.38,0.38 0 0 1 -0.19,0.23 v 0.23 c 0,0.07 0,0.13 0,0.2 0,0.07 0.07,0.19 0.16,0.27 v -0.15 c 0.07,0.11 0,0.17 0,0.22 a 0.2,0.2 0 0 0 -0.07,0.31 0.48,0.48 0 0 1 0,0.14 v 0 c 0.11,0 0.25,0.07 0.29,0.21 v 0 l 0.24,0.31 0.18,0.25 c 0.08,0.11 0.22,0.2 0.25,0.32 0.03,0.12 0.19,0.21 0.3,0.29 0.11,0.08 0.46,0.16 0.66,0.31 a 0.53,0.53 0 0 1 0.24,0.36 c 0,0.25 0.07,0.5 0.1,0.75 0.03,0.25 0,0.52 0.06,0.78 0.06,0.26 0,0.24 0,0.36 a 1,1 0 0 0 0,0.16 c 0,0.08 0.06,0.17 0.08,0.25 a 1,1 0 0 1 0.06,0.27 c 0,0.15 0,0.3 0,0.46 0,0.16 0,0.2 0,0.24 0,0.04 0,0.11 0,0.17 a 0.79,0.79 0 0 1 0.12,0.34 0.48,0.48 0 0 0 0.12,0.43 c -0.1,0 -0.1,0.07 -0.08,0.13 a 2.12,2.12 0 0 0 0.07,0.22 v 0 a 0.48,0.48 0 0 0 0,-0.35 l 0.12,-0.09 a 4.22,4.22 0 0 1 0,0.5 c 0,0.16 0.16,0.32 0,0.49 l -0.11,-0.11 c 0,0.11 -0.08,0.2 -0.11,0.29 -0.03,0.09 0,0 0.05,0.06 v 0 -0.08 h 0.11 c 0,0 0.09,0.06 0.08,0.08 -0.01,0.02 0,0.15 0.12,0.14 l -0.08,0.08 c -0.06,0 -0.11,-0.06 -0.16,0 l 0.12,0.09 a 0.33,0.33 0 0 0 0,0.08 h 0.07 v 0.13 c 0.19,0 0.19,0 0.21,0.37 0.1,0 0.12,-0.09 0.08,-0.26 l 0.14,0.25 -0.17,0.1 0.2,0.06 0.12,-0.11 v 0 l -0.11,0.16 0.31,0.22 -0.34,-0.11 v 0 l 0.44,0.23 v -0.13 c 0,0 0,0 0,-0.07 a 0.45,0.45 0 0 1 0.17,-0.31 l 0.07,0.09 c 0,0 0,0 0,0.07 0,0.07 0,0 -0.06,0 -0.06,0 -0.09,0.11 -0.08,0.19 a 1.17,1.17 0 0 1 0,0.17 h 0.29 v 0 c 0,-0.05 0,-0.14 0.07,-0.14 0.07,0 0.06,0.13 0.11,0.2 h 0.2 v -0.1 0 l 0.23,-0.14 a 0.85,0.85 0 0 1 -0.57,-0.23 c 0,0 -0.06,-0.1 -0.1,-0.14 a 0.8,0.8 0 0 0 -0.17,-0.08 h 0.1 a 1.5,1.5 0 0 0 -0.14,-0.25 c -0.09,-0.11 0,-0.17 0,-0.25 a 0.54,0.54 0 0 0 0.06,-0.17 0.54,0.54 0 0 1 0,-0.17 0.31,0.31 0 0 0 0,-0.38 c -0.14,0 -0.34,-0.09 -0.35,-0.19 -0.01,-0.1 0.1,-0.21 0.24,-0.26 0.14,-0.05 0,-0.13 0,-0.16 a 0.22,0.22 0 0 1 0,-0.31 h -0.09 v 0 l 0.13,0.05 c 0.08,0 0.08,0 0,-0.2 l -0.11,0.08 c -0.16,0 -0.11,-0.19 -0.17,-0.3 -0.06,-0.11 0.12,0 0.17,0 a 0.45,0.45 0 0 0 0.2,0 0.15,0.15 0 0 0 0.05,-0.13 c 0,-0.12 0,-0.24 -0.08,-0.36 0.55,0 0.81,-0.24 0.73,-0.57 -0.05,0 -0.13,-0.07 -0.12,-0.08 0.01,-0.01 -0.06,-0.17 -0.14,-0.21 l -0.13,-0.1 a 1.41,1.41 0 0 1 0.18,0 h 0.2 a 0.41,0.41 0 0 0 0.35,-0.1 0.83,0.83 0 0 0 0.17,-0.54 v 0 a 0.51,0.51 0 0 0 0.27,-0.37 c 0,-0.1 0.07,-0.21 0.11,-0.31 a 0.35,0.35 0 0 0 0,-0.31 0.34,0.34 0 0 1 0,-0.29 1.14,1.14 0 0 1 0.35,-0.34 0.44,0.44 0 0 0 0.2,-0.23 0.55,0.55 0 0 0 0.52,-0.2 0.6,0.6 0 0 1 0,-0.21 c 0.12,-0.18 0.06,-0.4 0.12,-0.6 a 1.31,1.31 0 0 0 0,-0.47 c 0,-0.12 0,-0.24 0,-0.37 v 0 0.06 c 0,0 0.07,-0.07 0.07,-0.11 a 1.31,1.31 0 0 1 0.29,-0.51 0.37,0.37 0 0 0 0.08,-0.34 c 0.33,0.09 0.28,-0.01 0.26,-0.11 z"
       id="path77"
       inkscape:connector-curvature="0"
       style="fill:#bfbfbf" />
    <path
       class="c"
       d="m 189.91,27.92 a 11.48,11.48 0 0 0 -2.08,-0.32 v 0.11 a 0.37,0.37 0 0 0 -0.4,0 l 0.08,0.12 v 0.37 h 0.16 c 0.07,0 0.09,-0.08 0,-0.14 l -0.15,-0.17 0.28,0.11 v 0 l 0.07,0.11 -0.11,0.28 -0.22,0.05 v 0.12 h -0.07 l -0.06,0.15 a 0.39,0.39 0 0 1 0,0.07 0.32,0.32 0 0 0 0,0.27 0.24,0.24 0 0 1 0,0.13 c 0,0.05 0,0 0.05,0.08 a 3,3 0 0 0 0.17,0.48 h 0.07 v 0.07 a 0.34,0.34 0 0 0 0.07,0.27 c 0,0 0.1,0.1 0.09,0.12 -0.01,0.02 0,0.09 0,0.13 0,0.04 0.09,0 0,0.12 -0.09,0.12 0.06,0.13 0.11,0.18 0.05,0.05 0.07,0 0.1,0 v 0.12 l 0.29,-0.14 0.06,0.16 a 0.42,0.42 0 0 0 0.37,0.07 v -0.05 c 0.14,-0.13 0.07,-0.32 0.15,-0.47 0.08,-0.15 0.13,-0.27 0.18,-0.4 0.05,-0.13 0.06,-0.13 0.1,-0.2 l -0.09,-0.05 a 0.49,0.49 0 0 0 0.11,-0.13 c 0,0 0,-0.07 -0.07,-0.1 v 0 c 0.16,0.09 0.15,0 0.15,-0.08 0,-0.08 0.19,0 0.23,-0.07 0.04,-0.07 0,-0.15 0,-0.22 v 0 0.26 c 0.06,0 0.09,-0.09 0.13,-0.1 0.04,-0.01 0.22,-0.13 0.31,-0.21 0.09,-0.08 0.16,-0.28 0.28,-0.38 0.12,-0.1 0.08,-0.18 0,-0.28 0.1,0.14 0.15,0.16 0.25,0.12 a 1.41,1.41 0 0 1 0.29,-0.12 1.06,1.06 0 0 0 0.56,-0.35 2.81,2.81 0 0 1 -1.46,-0.09 z"
       id="path79"
       inkscape:connector-curvature="0"
       style="fill:#bfbfbf" />
    <path
       class="c"
       d="m 186.75,34.17 c 0.18,0 0.22,-0.14 0.32,-0.24 v 0.22 h 0.08 0.11 a 1.56,1.56 0 0 0 0.06,-0.21 h -0.11 l 0.05,-0.14 -0.12,0.11 v 0 l 0.13,-0.24 -0.15,0.08 0.08,-0.19 -0.1,-0.09 -0.12,0.1 h -0.14 l 0.05,-0.11 h -0.08 l -0.08,0.07 v 0 l 0.23,-0.39 h -0.12 a 0.66,0.66 0 0 0 -0.27,0.39 c 0,0.11 -0.05,0.24 -0.2,0.26 v 0 h 0.1 l -0.1,0.11 a 0.31,0.31 0 0 0 0,0.09 h 0.09 0.21 0.37 z"
       id="path81"
       inkscape:connector-curvature="0"
       style="fill:#bfbfbf" />
    <path
       class="c"
       d="m 184.33,28.82 c 0.17,0 0.22,0 0.27,-0.22 0.05,-0.22 0,-0.09 0,-0.11 a 0.14,0.14 0 0 0 -0.11,0 0.3,0.3 0 0 0 -0.16,0.33 z"
       id="path83"
       inkscape:connector-curvature="0"
       style="fill:#bfbfbf" />
    <path
       class="c"
       d="m 183.35,30.23 c -0.28,0 -0.36,0.08 -0.3,0.25 a 0.37,0.37 0 0 0 0.3,-0.25 z"
       id="path85"
       inkscape:connector-curvature="0"
       style="fill:#bfbfbf" />
    <path
       class="c"
       d="m 185.53,33.56 v 0 a 0.35,0.35 0 0 0 0.44,0.13 z"
       id="path87"
       inkscape:connector-curvature="0"
       style="fill:#bfbfbf" />
    <path
       class="c"
       d="m 185.41,40 v -0.08 h -0.24 c 0,0 0,0 0,0.07 0,0.07 0,0 0.06,0 z"
       id="path89"
       inkscape:connector-curvature="0"
       style="fill:#bfbfbf" />
    <path
       class="c"
       d="m 183.57,30.62 a 1,1 0 0 0 0.07,-0.11 0.38,0.38 0 0 0 0,-0.11 c 0,0 -0.05,0 -0.06,0 a 0.19,0.19 0 0 0 -0.08,0.08 c 0,0.03 -0.03,0.11 0.07,0.14 z"
       id="path91"
       inkscape:connector-curvature="0"
       style="fill:#bfbfbf" />
    <path
       class="c"
       d="m 183.28,32.12 v 0.16 l 0.2,-0.11 -0.08,-0.1 z"
       id="path93"
       inkscape:connector-curvature="0"
       style="fill:#bfbfbf" />
    <path
       class="c"
       d="m 185.46,34.32 0.29,0.15 v -0.12 c -0.09,0 -0.21,0.06 -0.25,-0.1 z"
       id="path95"
       inkscape:connector-curvature="0"
       style="fill:#bfbfbf" />
    <path
       class="c"
       d="m 183.08,33.07 v 0 c 0,0 -0.08,-0.07 -0.08,-0.07 0,0 -0.08,0 -0.11,0.05 v 0 z"
       id="path97"
       inkscape:connector-curvature="0"
       style="fill:#bfbfbf" />
    <path
       class="c"
       d="m 186.18,41.26 c 0.1,0 0.13,-0.07 0.09,-0.16 h -0.09 z"
       id="path99"
       inkscape:connector-curvature="0"
       style="fill:#bfbfbf" />
    <path
       class="c"
       d="m 190.87,43.34 c 0,-0.1 -0.09,-0.11 -0.17,-0.11 a 0.47,0.47 0 0 1 -0.18,0 l -0.35,-0.2 c -0.16,-0.09 -0.33,0 -0.49,0 -0.16,0 -0.27,-0.06 -0.38,0.07 v 0 c 0,-0.07 -0.06,-0.18 -0.09,-0.18 -0.03,0 -0.24,-0.07 -0.36,-0.08 -0.12,-0.01 -0.19,0 -0.22,0.1 h -0.05 c 0.06,-0.2 0.05,-0.2 -0.15,-0.17 h -0.07 c 0,0 -0.07,0 -0.08,0 a 1.52,1.52 0 0 0 -0.11,0.15 v 0 a 0.78,0.78 0 0 1 0,-0.16 c 0,0 0.07,-0.07 0.1,-0.11 a 0.19,0.19 0 0 0 0,-0.29 c 0,0 -0.1,-0.08 -0.12,-0.14 a 0.45,0.45 0 0 0 -0.23,-0.27 0.81,0.81 0 0 0 -0.56,-0.13 0.48,0.48 0 0 1 -0.39,0 c 0,0 -0.09,0 -0.14,0 a 0.37,0.37 0 0 0 -0.46,-0.26 c 0,-0.23 -0.24,-0.11 -0.3,-0.24 l 0.11,-0.08 h -0.37 c 0,0 0,0 0,0 0,0 -0.18,0.15 -0.21,0.11 -0.03,-0.04 -0.2,0 -0.3,0 -0.1,0 -0.14,0.05 -0.15,-0.07 -0.01,-0.12 -0.05,0 -0.08,0 -0.03,0 -0.2,0 -0.23,-0.16 l -0.12,0.14 h 0.15 l -0.3,0.14 v -0.09 l 0.13,-0.13 c -0.1,-0.09 -0.16,0 -0.22,0 a 1.41,1.41 0 0 1 -0.32,0.21 c -0.07,0 -0.13,0 -0.15,0.1 a 2,2 0 0 0 0,0.21 0.24,0.24 0 0 0 -0.14,0.29 c -0.16,-0.22 -0.38,-0.3 -0.57,-0.17 a 0.28,0.28 0 0 1 -0.26,0.07 c -0.13,0 -0.36,-0.2 -0.36,-0.33 0,-0.13 0,-0.29 0,-0.44 a 0.9,0.9 0 0 0 0,-0.23 c 0,0 -0.09,0 -0.12,0 v -0.07 a 3.53,3.53 0 0 0 -0.38,0 3.4,3.4 0 0 1 -0.4,0.06 c 0.14,-0.15 0,-0.32 0.06,-0.47 h 0.08 c 0,0 0,0 0,0 a 0.9,0.9 0 0 1 0.12,-0.51 0.07,0.07 0 0 0 0,-0.06 c 0,0 0,0 -0.06,0 -0.06,0 -0.33,0.09 -0.49,0.14 -0.16,0.05 0,0.08 -0.06,0.13 l -0.13,0.4 a 1.17,1.17 0 0 0 -0.21,0 0.52,0.52 0 0 0 -0.16,0.08 c -0.1,0.07 -0.17,0 -0.25,0 -0.08,0 -0.29,-0.21 -0.36,-0.34 a 1.18,1.18 0 0 1 -0.1,-0.71 c 0,-0.12 0,-0.24 0,-0.36 0,-0.12 0,-0.17 0,-0.24 0,-0.07 0.06,-0.18 0.2,-0.19 a 0.18,0.18 0 0 0 0.17,-0.19 v 0 0 c 0.08,0 0.17,-0.08 0.23,-0.07 0.06,0.01 0.27,-0.09 0.36,0.06 v 0 h 0.21 c 0,0 -0.06,-0.11 -0.05,-0.16 0.01,-0.05 0.08,-0.08 0.13,-0.09 a 2.92,2.92 0 0 1 0.42,0 0.22,0.22 0 0 1 0.14,0.07 c 0,0.05 0.08,0.05 0.12,0 0.04,-0.05 0.12,-0.06 0.18,0 0.06,0.06 0.07,0 0.1,0.08 a 0.26,0.26 0 0 1 0,0.1 c 0,0.06 -0.05,0.11 0,0.18 a 1.52,1.52 0 0 1 0.22,0.37 c 0,0.05 0.1,0.09 0.13,0 a 0.65,0.65 0 0 0 0.06,-0.34 2.58,2.58 0 0 0 -0.17,-0.42 0.51,0.51 0 0 1 0.19,-0.67 3.63,3.63 0 0 0 0.33,-0.3 l 0.24,-0.2 v -0.06 l 0.16,-0.12 -0.12,-0.05 a 0.14,0.14 0 0 0 0,-0.18 1.92,1.92 0 0 1 -0.07,-0.28 h 0.06 l 0.06,0.19 c 0,-0.13 0.18,-0.25 0,-0.43 l 0.14,0.07 0.14,-0.38 0.27,-0.08 v 0 h -0.15 v 0 l 0.41,-0.14 v 0 l 0.13,-0.09 v 0 a 0.09,0.09 0 0 1 -0.13,-0.08 0.6,0.6 0 0 1 0.4,-0.48 l 0.28,-0.07 v 0 h -0.08 v 0 l 0.3,-0.1 c -0.09,0.13 -0.33,0.21 -0.08,0.42 l 0.2,-0.23 0.48,-0.22 v -0.07 h -0.29 a 0.26,0.26 0 0 1 -0.22,-0.34 c 0,0 0,-0.08 0,-0.13 v 0 l 0.09,-0.12 a 0.62,0.62 0 0 0 -0.13,-0.08 0.22,0.22 0 0 0 -0.14,0 1.12,1.12 0 0 0 -0.6,0.4 l -0.07,0.12 -0.08,-0.06 a 1.06,1.06 0 0 0 0.18,-0.15 0.77,0.77 0 0 1 0.36,-0.32 c 0,0 0,-0.06 0.07,-0.09 0.07,-0.03 0.1,-0.17 0.17,-0.17 0.22,0 0.45,0 0.67,0 a 0.5,0.5 0 0 0 0.47,-0.24 c 0,0 0.09,-0.06 0.13,-0.07 0.28,-0.11 0.34,-0.11 0.29,-0.39 0,-0.1 -0.11,-0.18 -0.17,-0.16 -0.06,0.02 0,-0.11 0,-0.11 a 1,1 0 0 0 -0.2,0 l 0.17,-0.1 -0.39,-0.16 c 0,-0.17 -0.22,-0.15 -0.26,-0.27 l 0.14,-0.14 -0.1,-0.11 c 0,0 0,0 0,0 a 0.11,0.11 0 0 0 -0.1,-0.15 c 0,-0.25 -0.18,-0.44 -0.19,-0.68 a 1.18,1.18 0 0 1 -0.5,0.67 2.23,2.23 0 0 1 -0.2,-0.19 0.32,0.32 0 0 1 0,-0.14 c 0,0 0,-0.06 0,-0.08 a 0.31,0.31 0 0 1 0.05,-0.28 0.35,0.35 0 0 0 0,-0.11 l -0.09,0.05 a 1.53,1.53 0 0 1 -0.31,-0.28 0.29,0.29 0 0 0 -0.31,-0.15 0.93,0.93 0 0 1 -0.27,0 c -0.09,0 -0.18,0 -0.22,0.06 a 0.57,0.57 0 0 0 0,0.22 v 0 l -0.11,0.23 c 0,0 0,0 0,0 0,0 0,0.15 0,0.22 a 2.7,2.7 0 0 1 -0.19,0.23 c -0.07,0.07 -0.07,0.12 0,0.18 0.07,0.06 0.12,0.27 0.16,0.41 a 0.82,0.82 0 0 1 0,0.19 h -0.07 a 4.05,4.05 0 0 1 -0.34,0.26 c -0.09,0.05 -0.16,0.08 -0.09,0.2 a 0.25,0.25 0 0 1 0,0.11 c 0,0.21 0,0.42 0,0.65 l -0.09,-0.12 -0.06,0.14 -0.11,-0.07 a 0.75,0.75 0 0 1 -0.11,-0.14 c 0,-0.08 -0.12,-0.16 -0.12,-0.24 a 4.05,4.05 0 0 1 0.08,-0.51 c 0,0 0,0 0,0 a 1.32,1.32 0 0 0 -0.25,0 c -0.21,0 -0.35,-0.12 -0.49,-0.24 a 3.3,3.3 0 0 0 -0.33,-0.21 c -0.15,-0.1 -0.26,0 -0.38,0 v 0 c 0.13,-0.17 0,-0.34 0,-0.53 l -0.18,0.07 a 2.49,2.49 0 0 1 0,-0.36 1,1 0 0 1 0.12,-0.29 c 0.05,-0.09 0.13,-0.17 0.18,-0.27 a 0.68,0.68 0 0 1 0.16,-0.17 c 0.05,-0.05 0.19,-0.1 0.11,-0.2 0.07,0 0.18,0 0.21,-0.05 0.03,-0.05 0,-0.15 0,-0.19 0,-0.04 0.11,0 0.14,0 a 0.54,0.54 0 0 0 0.11,-0.16 c 0.08,0.07 0.16,0.09 0.24,0 a 1.28,1.28 0 0 1 0.18,-0.21 0.1,0.1 0 0 0 0,-0.16 v 0 l 0.27,-0.26 -0.11,-0.15 c 0.09,0 0.19,0 0.2,0 0.01,0 0.16,0.08 0.24,0.06 0.08,-0.02 0.27,-0.2 0.37,-0.33 a 0.1,0.1 0 0 0 0,-0.09 c -0.08,-0.09 0,-0.21 -0.08,-0.32 0.24,0.07 0.19,-0.12 0.23,-0.23 0.04,-0.11 -0.12,-0.06 -0.13,-0.11 -0.01,-0.05 0,-0.11 -0.13,-0.1 -0.13,0.01 -0.12,0 -0.19,-0.06 a 0.06,0.06 0 0 0 -0.05,0 c 0,0.09 0,0.18 0,0.27 0,0.09 -0.1,0.07 -0.13,0.12 -0.03,0.05 -0.12,0.25 -0.19,0.37 a 0.13,0.13 0 0 1 -0.09,0.06 0.1,0.1 0 0 1 -0.08,-0.05 c 0,-0.11 -0.1,-0.23 0,-0.32 0.1,-0.09 0,0 0,-0.06 l -0.1,-0.27 v 0 l -0.15,0.33 v 0 -0.33 l 0.07,-0.07 -0.26,-0.06 0.07,-0.11 h -0.42 a 0.54,0.54 0 0 0 0.21,0.13 l -0.19,0.18 v 0 H 182 a 0.26,0.26 0 0 1 -0.19,0.29 c -0.18,0.05 -0.18,0.16 -0.17,0.3 a 0.21,0.21 0 0 1 0,0.07 l -0.12,-0.16 0.13,-0.22 a 0.39,0.39 0 0 1 -0.13,0 0.36,0.36 0 0 1 -0.06,-0.11 c -0.14,0.05 -0.23,0.12 -0.2,0.28 h -0.15 a 0.45,0.45 0 0 0 -0.17,0 0.19,0.19 0 0 1 -0.27,-0.08 0.13,0.13 0 0 0 -0.08,-0.06 c -0.14,0 -0.17,-0.1 -0.18,-0.2 -0.01,-0.1 0,-0.2 -0.21,-0.14 h -0.09 l -0.23,0.1 c 0.08,0 0.12,0.1 0.15,0.09 a 1.77,1.77 0 0 0 0.21,-0.1 h 0.1 v 0 l -0.3,0.16 c -0.07,0 -0.14,0.06 -0.12,0.16 a 1.44,1.44 0 0 1 0,0.21 l -0.11,0.12 a 0.63,0.63 0 0 0 -0.16,-0.5 0.67,0.67 0 0 1 -0.71,0 c 0,-0.15 0.14,-0.14 0.24,-0.14 a 0.3,0.3 0 0 0 0,-0.1 15,15 0 0 0 -3.22,1.11 5.7,5.7 0 0 0 -2,1.6 0.38,0.38 0 0 1 0.33,0.1 c 0,0 0.12,0 0.2,0 l -0.07,0.1 c 0,0 0.08,0.11 0.12,0.11 0.04,0 0.06,0 0.07,0.08 0.01,0.08 0.09,0.23 0.22,0.24 0.13,0.01 0,0.17 0,0.22 a 0.63,0.63 0 0 1 0.06,0.37 0.21,0.21 0 0 0 0,0.07 v 0 l 0.05,-0.33 v 0.11 l 0.11,-0.15 c 0.07,-0.09 0.08,-0.17 0,-0.24 a 0.13,0.13 0 0 1 0,-0.09 c 0,-0.1 0,-0.19 0,-0.29 v 0 a 1.25,1.25 0 0 1 0,0.13 0.25,0.25 0 0 0 0.11,0.29 c 0.11,0.05 0,0.1 0,0.15 0,0.05 -0.07,0.13 0,0.19 0.07,0.06 0,0.08 0.07,0.11 0.07,0.03 -0.06,0 -0.09,-0.07 -0.03,-0.07 -0.09,-0.06 -0.12,-0.05 a 0.18,0.18 0 0 0 -0.12,0.09 0.71,0.71 0 0 0 0,0.2 h 0.06 l 0.11,-0.06 c 0.11,0 0.16,0.06 0.12,0.17 -0.04,0.11 0,0.07 0.07,0.05 v 0.2 l 0.1,-0.06 v 0.13 l 0.15,-0.08 a 0.33,0.33 0 0 0 -0.07,0.27 c 0,0 0,0.06 0,0.09 a 1,1 0 0 0 0,0.11 h 0.08 0.16 c -0.05,0.06 -0.12,0.1 -0.12,0.13 a 0.64,0.64 0 0 0 0.08,0.21 c 0,0 0.06,0 0.06,0.08 a 1.25,1.25 0 0 1 0,0.2 0.16,0.16 0 0 0 0.16,0.19 v 0.1 h 0.25 c -0.06,0.22 0,0.28 0.15,0.24 0,0.15 0.15,0.27 0.07,0.43 l -0.35,-0.13 a 1.41,1.41 0 0 0 0,0.15 3.23,3.23 0 0 1 0,0.44 3.2,3.2 0 0 1 -0.09,0.46 c 0,0.17 -0.08,0.33 -0.11,0.5 -0.03,0.17 0,0.21 0,0.31 0,0.1 -0.08,0.21 0,0.31 0.08,0.1 0,0.06 0,0.09 0,0.03 0.09,0.23 0.14,0.34 h 0.07 a 1.15,1.15 0 0 0 0.13,0.55 c 0,0.07 0.08,0.15 0.11,0.21 0.03,0.06 0.27,0.11 0.4,0.18 a 0.28,0.28 0 0 1 0.11,0.13 c 0.09,0.21 0.17,0.42 0.26,0.63 0.2,0.13 0.23,0.21 0.16,0.44 l 0.13,0.06 a 0.31,0.31 0 0 1 0.23,0.33 0.12,0.12 0 0 0 0,0.08 l 0.37,0.29 c 0,0 0.06,-0.07 0,-0.08 a 0.71,0.71 0 0 0 -0.13,-0.15 c 0,0 -0.08,0 -0.09,-0.06 a 1.13,1.13 0 0 0 -0.19,-0.45 c -0.12,-0.15 -0.21,-0.32 -0.34,-0.47 a 0.64,0.64 0 0 1 -0.11,-0.44 0.34,0.34 0 0 1 0.29,0.26 1.83,1.83 0 0 0 0.47,0.63 0.49,0.49 0 0 0 0.14,0.08 c -0.08,0.08 -0.09,0.14 0,0.18 a 0.5,0.5 0 0 1 0.15,0.1 c 0,0 0.06,0.08 0.09,0.12 a 1.46,1.46 0 0 1 0.2,0.19 c 0.09,0.13 0.21,0.26 0.15,0.44 a 0.21,0.21 0 0 0 0.16,0.28 0.28,0.28 0 0 1 0.14,0.07 c 0.07,0.08 0.16,0.08 0.25,0.11 0.09,0.03 0.18,0.08 0.27,0.11 A 1.75,1.75 0 0 0 180,41 c 0.17,0 0.35,0.13 0.52,0 0.17,-0.13 0.19,-0.06 0.29,0 a 1.82,1.82 0 0 0 0.42,0.25 1.79,1.79 0 0 0 0.43,0.06 h 0.2 a 0.36,0.36 0 0 0 0.06,0.09 c 0.06,0.06 0.14,0.11 0.2,0.17 a 0.26,0.26 0 0 1 0.07,0.14 c 0,0.09 0.07,0.15 0.16,0.13 a 0.16,0.16 0 0 1 0.2,0.1 c 0,0.12 0.11,0.09 0.17,0.08 a 0.39,0.39 0 0 1 0.37,0.14 l 0.11,-0.09 -0.07,-0.1 0.09,-0.09 c 0,0 0.08,-0.08 0.09,-0.08 a 0.47,0.47 0 0 1 0.14,0.12 0.81,0.81 0 0 1 0.07,0.14 c 0.05,0.1 0.15,0.17 0.13,0.31 a 1.3,1.3 0 0 0 0.07,0.35 c -0.05,0.07 -0.17,0.15 -0.21,0.27 a 0.38,0.38 0 0 1 -0.19,0.23 v 0.23 c 0,0.07 0,0.13 0,0.2 0,0.07 0.07,0.19 0.16,0.27 v -0.15 c 0.07,0.11 0,0.17 0,0.22 a 0.2,0.2 0 0 0 -0.07,0.31 0.48,0.48 0 0 1 0,0.14 v 0 c 0.11,0 0.25,0.07 0.29,0.21 v 0 l 0.24,0.31 0.18,0.25 c 0.08,0.11 0.22,0.2 0.25,0.32 0.03,0.12 0.19,0.21 0.3,0.29 0.11,0.08 0.46,0.16 0.66,0.31 a 0.53,0.53 0 0 1 0.24,0.36 c 0,0.25 0.07,0.5 0.1,0.75 0.03,0.25 0,0.52 0.06,0.78 0.06,0.26 0,0.24 0,0.36 a 1,1 0 0 0 0,0.16 c 0,0.08 0.06,0.17 0.08,0.25 a 1,1 0 0 1 0.06,0.27 c 0,0.15 0,0.3 0,0.46 0,0.16 0,0.2 0,0.24 0,0.04 0,0.11 0,0.17 a 0.79,0.79 0 0 1 0.12,0.34 0.48,0.48 0 0 0 0.12,0.43 v 0 l 0.12,-0.09 a 4.22,4.22 0 0 1 0,0.5 c 0,0.16 0.16,0.32 0,0.49 l -0.11,-0.11 c 0,0.11 -0.08,0.2 -0.11,0.29 -0.03,0.09 0,0 0.05,0.06 v 0 -0.08 h 0.11 c 0,0 0.09,0.06 0.08,0.08 -0.01,0.02 0,0.15 0.12,0.14 l -0.08,0.08 c 0.08,0.07 0,0.11 0,0.14 a 0.33,0.33 0 0 0 0,0.08 h 0.07 v 0.13 c 0.19,0 0.19,0 0.21,0.37 0.1,0 0.12,-0.09 0.08,-0.26 l 0.14,0.25 -0.17,0.1 0.2,0.06 0.12,-0.11 v 0 l -0.11,0.16 0.31,0.22 h 0.12 c 0,0 0,0 0,-0.07 a 0.45,0.45 0 0 1 0.17,-0.31 l 0.07,0.09 c 0,0 0,0 0,0.07 0,0.07 0,0 -0.06,0 -0.06,0 -0.09,0.11 -0.08,0.19 a 1.17,1.17 0 0 1 0,0.17 h 0.29 v 0 c 0,-0.05 0,-0.14 0.07,-0.14 0.07,0 0.06,0.13 0.11,0.2 h 0.2 v -0.1 0 l 0.23,-0.14 a 0.85,0.85 0 0 1 -0.57,-0.23 c 0,0 -0.06,-0.1 -0.1,-0.14 a 0.8,0.8 0 0 0 -0.17,-0.08 h 0.1 a 1.5,1.5 0 0 0 -0.14,-0.25 c -0.09,-0.11 0,-0.17 0,-0.25 a 0.54,0.54 0 0 0 0.06,-0.17 0.54,0.54 0 0 1 0,-0.17 0.31,0.31 0 0 0 0,-0.38 c -0.14,0 -0.34,-0.09 -0.35,-0.19 -0.01,-0.1 0.1,-0.21 0.24,-0.26 0.14,-0.05 0,-0.13 0,-0.16 a 0.22,0.22 0 0 1 0,-0.31 h -0.09 v 0 l 0.13,0.05 c 0.08,0 0.08,0 0,-0.2 l -0.11,0.08 c -0.16,0 -0.11,-0.19 -0.17,-0.3 -0.06,-0.11 0.12,0 0.17,0 a 0.45,0.45 0 0 0 0.2,0 0.15,0.15 0 0 0 0.05,-0.13 c 0,-0.12 0,-0.24 -0.08,-0.36 0.55,0 0.81,-0.24 0.73,-0.57 -0.05,0 -0.13,-0.07 -0.12,-0.08 0.01,-0.01 -0.06,-0.17 -0.14,-0.21 l -0.13,-0.1 a 1.41,1.41 0 0 1 0.18,0 h 0.2 a 0.41,0.41 0 0 0 0.35,-0.1 0.83,0.83 0 0 0 0.17,-0.54 v 0 a 0.51,0.51 0 0 0 0.27,-0.37 c 0,-0.1 0.07,-0.21 0.11,-0.31 a 0.35,0.35 0 0 0 0,-0.31 0.34,0.34 0 0 1 0,-0.29 1.14,1.14 0 0 1 0.35,-0.34 0.44,0.44 0 0 0 0.2,-0.23 0.55,0.55 0 0 0 0.52,-0.2 0.6,0.6 0 0 1 0,-0.21 c 0.12,-0.18 0.06,-0.4 0.12,-0.6 a 1.31,1.31 0 0 0 0,-0.47 c 0,-0.12 0,-0.24 0,-0.37 v 0 0.06 c 0,0 0.07,-0.07 0.07,-0.11 a 1.31,1.31 0 0 1 0.29,-0.51 0.37,0.37 0 0 0 0.08,-0.34 c 0.26,0.03 0.21,-0.07 0.19,-0.17 z"
       id="path101"
       inkscape:connector-curvature="0"
       style="fill:#bfbfbf" />
    <path
       class="c"
       d="m 182.73,29.47 c -0.16,0.06 -0.31,0 -0.29,-0.19 0.11,0.04 0.14,0.21 0.29,0.19 z"
       id="path103"
       inkscape:connector-curvature="0"
       style="fill:#bfbfbf" />
    <path
       class="c"
       d="m 175.15,31.79 v -0.17 l -0.19,-0.33 v 0 l 0.06,0.11 a 0.73,0.73 0 0 0 0.09,0.13 0.24,0.24 0 0 1 0.04,0.26 z"
       id="path105"
       inkscape:connector-curvature="0"
       style="fill:#bfbfbf" />
    <path
       class="c"
       d="m 189.07,48 a 2,2 0 0 1 -0.16,0.21 c 0,0 0,-0.06 0,-0.08 a 1.1,1.1 0 0 1 0.19,-0.27 0.46,0.46 0 0 1 -0.03,0.14 z"
       id="path107"
       inkscape:connector-curvature="0"
       style="fill:#bfbfbf" />
    <path
       class="c"
       d="m 184.59,41.38 c -0.12,0.15 -0.12,0.15 0,0.25 0.09,-0.06 -0.01,-0.15 0,-0.25 z"
       id="path109"
       inkscape:connector-curvature="0"
       style="fill:#bfbfbf" />
    <path
       class="c"
       d="m 189.91,27.92 a 11.48,11.48 0 0 0 -2.08,-0.32 v 0.11 a 0.37,0.37 0 0 0 -0.4,0 l 0.08,0.12 h 0.05 l 0.28,0.11 v 0 l 0.07,0.11 -0.11,0.28 -0.22,0.05 v 0.12 h -0.07 l -0.06,0.15 a 0.39,0.39 0 0 1 0,0.07 0.32,0.32 0 0 0 0,0.27 0.24,0.24 0 0 1 0,0.13 c 0,0.05 0,0 0.05,0.08 a 3,3 0 0 0 0.17,0.48 h 0.07 v 0.07 a 0.34,0.34 0 0 0 0.07,0.27 c 0,0 0.1,0.1 0.09,0.12 -0.01,0.02 0,0.09 0,0.13 0,0.04 0.09,0 0,0.12 -0.09,0.12 0.06,0.13 0.11,0.18 0.05,0.05 0.07,0 0.1,0 v 0.12 l 0.29,-0.14 0.06,0.16 a 0.42,0.42 0 0 0 0.37,0.07 v -0.05 c 0.14,-0.13 0.07,-0.32 0.15,-0.47 0.08,-0.15 0.13,-0.27 0.18,-0.4 0.05,-0.13 0.06,-0.13 0.1,-0.2 l -0.09,-0.05 a 0.49,0.49 0 0 0 0.11,-0.13 c 0,0 0,-0.07 -0.07,-0.1 v 0 c 0.16,0.09 0.15,0 0.15,-0.08 0,-0.08 0.19,0 0.23,-0.07 0.04,-0.07 0,-0.15 0,-0.22 v 0 0.26 c 0.06,0 0.09,-0.09 0.13,-0.1 0.04,-0.01 0.22,-0.13 0.31,-0.21 0.09,-0.08 0.16,-0.28 0.28,-0.38 0.12,-0.1 0.08,-0.18 0,-0.28 0.1,0.14 0.15,0.16 0.25,0.12 a 1.41,1.41 0 0 1 0.29,-0.12 1.06,1.06 0 0 0 0.56,-0.35 2.81,2.81 0 0 1 -1.5,-0.03 z"
       id="path111"
       inkscape:connector-curvature="0"
       style="fill:#bfbfbf" />
    <path
       class="c"
       d="m 186,28.84 c -0.11,-0.11 -0.2,-0.23 -0.3,-0.35 v 0 h -0.19 l 0.1,-0.25 h 0.14 c 0,-0.16 -0.14,-0.08 -0.2,-0.16 l 0.17,-0.06 a 2.56,2.56 0 0 0 -0.12,-0.29 0.17,0.17 0 0 0 -0.12,-0.08 h -0.07 l -1.25,0.08 0.2,0.11 v 0.13 l 0.19,0.27 -0.12,0.1 v 0 h 0.15 c 0,0 0,0 0.07,0 v 0 0.09 0 l 0.17,-0.1 v 0.13 c 0.13,0 0.15,0.1 0.11,0.36 a 1.43,1.43 0 0 1 -0.19,0.2 c -0.14,0.09 -0.22,0.19 -0.1,0.35 0,0 0,0 0,0 -0.18,0 -0.36,0.17 -0.52,0 a 0.46,0.46 0 0 1 -0.07,0.12 c -0.06,0.05 -0.13,0.1 -0.07,0.18 0.06,0.08 0.13,0.14 0.24,0.06 a 0.29,0.29 0 0 1 0.12,0 h 0.17 v 0 l 0.05,-0.05 0.24,0.29 c 0,0 -0.06,0.08 0,0.12 a 1.71,1.71 0 0 0 0.25,0.14 l 0.48,0.25 c 0,-0.31 -0.28,-0.36 -0.33,-0.59 l 0.49,0.33 0.13,-0.26 c -0.08,-0.09 0,-0.29 -0.21,-0.39 -0.21,-0.1 -0.08,-0.12 -0.12,-0.19 v -0.06 l -0.07,-0.13 0.13,0.06 v -0.21 c 0.07,0.13 0.22,0.18 0.26,0.32 0.04,0.14 0.1,0.13 0.16,0.2 v 0 -0.22 c 0.14,0 0.23,-0.1 0.2,-0.19 h 0.16 l -0.17,-0.16 A 1.7,1.7 0 0 1 186,28.84 Z"
       id="path113"
       inkscape:connector-curvature="0"
       style="fill:#bfbfbf" />
    <path
       class="c"
       d="m 186.75,34.17 0.17,-0.16 h -0.37 -0.21 -0.09 a 0.31,0.31 0 0 1 0,-0.09 l 0.1,-0.11 h -0.1 v 0 c 0.15,0 0.16,-0.15 0.2,-0.26 a 0.66,0.66 0 0 1 0.27,-0.39 h 0.12 l -0.23,0.39 v 0 l 0.08,-0.07 h 0.08 l -0.05,0.11 h 0.14 l 0.12,-0.1 0.1,0.09 -0.08,0.19 0.15,-0.08 -0.13,0.24 v 0 l 0.12,-0.11 -0.05,0.14 h 0.11 a 1.56,1.56 0 0 1 -0.06,0.21 H 187.03 187 v -0.22 c 0,0.05 -0.08,0.21 -0.25,0.22 z"
       id="path115"
       inkscape:connector-curvature="0"
       style="fill:#bfbfbf" />
    <path
       class="c"
       d="M 182.84,30.16 V 30 h -0.16 a 0.9,0.9 0 0 0 0.09,-0.14 c 0,-0.09 0.06,-0.17 0.08,-0.26 l 0.06,-0.23 v -0.13 h 0.07 v 0.17 0 0 c 0.08,0.18 0.33,0.22 0.32,0.46 h 0.05 c 0.05,0 0.12,0 0.1,0.07 a 0.19,0.19 0 0 1 -0.12,0.1 0.28,0.28 0 0 1 -0.13,0 l -0.12,-0.18 c 0,0 -0.06,0 -0.08,0.08 a 0.47,0.47 0 0 1 -0.16,0.22 z"
       id="path117"
       inkscape:connector-curvature="0"
       style="fill:#bfbfbf" />
    <path
       class="c"
       d="m 184,39.8 -0.54,0.11 v 0 l 0.13,-0.1 c -0.14,0 -0.27,0 -0.29,-0.17 h -0.53 c 0,0 0,0 -0.06,-0.08 l -0.46,0.23 a 0.54,0.54 0 0 1 0.37,-0.31 h 0.25 c 0.16,-0.08 0.28,0.06 0.43,0.07 a 2.06,2.06 0 0 1 0.44,0.13 l 0.29,0.13 z"
       id="path119"
       inkscape:connector-curvature="0"
       style="fill:#bfbfbf" />
    <path
       class="c"
       d="m 185,39.92 c 0,0 -0.05,0.06 -0.07,0.06 a 0.25,0.25 0 0 0 -0.28,0.07 c -0.13,-0.07 -0.13,0.08 -0.2,0.14 -0.1,-0.13 -0.23,-0.09 -0.35,-0.06 -0.12,0.03 -0.09,0 -0.13,0 v 0 h 0.35 l -0.18,-0.2 0.08,-0.06 0.76,0.12 z"
       id="path121"
       inkscape:connector-curvature="0"
       style="fill:#bfbfbf" />
    <path
       class="c"
       d="m 176,33.89 c 0.11,0 0.15,0.11 0.2,0.21 0.05,0.1 0.14,0.18 0.14,0.3 0,0.12 0,0 0,0.09 a 1.62,1.62 0 0 1 -0.69,-0.72 l 0.17,0.05 z"
       id="path123"
       inkscape:connector-curvature="0"
       style="fill:#bfbfbf" />
    <path
       class="c"
       d="m 184.33,28.82 a 0.3,0.3 0 0 1 0.15,-0.34 0.14,0.14 0 0 1 0.11,0 c 0,0 0,0.07 0,0.11 0,0.04 -0.09,0.23 -0.26,0.23 z"
       id="path125"
       inkscape:connector-curvature="0"
       style="fill:#bfbfbf" />
    <path
       class="c"
       d="m 175.17,32.79 0.16,0.05 c 0,0.08 0,0.17 0,0.27 a 2.51,2.51 0 0 0 0,0.26 C 175.2,33.35 175.1,33 175.17,32.79 Z"
       id="path127"
       inkscape:connector-curvature="0"
       style="fill:#bfbfbf" />
    <path
       class="c"
       d="m 175.2,32.2 0.11,-0.06 c 0,0.09 0,0.17 0.05,0.26 0.05,0.09 0,0.15 0,0.22 h -0.05 c 0,-0.06 -0.1,-0.13 -0.09,-0.19 0.01,-0.06 0.06,-0.16 -0.02,-0.23 z"
       id="path129"
       inkscape:connector-curvature="0"
       style="fill:#bfbfbf" />
    <path
       class="c"
       d="m 185.93,34.52 c -0.07,-0.16 0.1,-0.2 0.13,-0.31 v 0 0.13 h 0.09 c 0,0.08 -0.14,0.15 -0.25,0.13 z"
       id="path131"
       inkscape:connector-curvature="0"
       style="fill:#bfbfbf" />
    <path
       class="c"
       d="m 183.35,30.23 a 0.37,0.37 0 0 1 -0.3,0.25 c -0.05,-0.17 0.02,-0.24 0.3,-0.25 z"
       id="path133"
       inkscape:connector-curvature="0"
       style="fill:#bfbfbf" />
    <path
       class="c"
       d="m 187.09,53.29 h 0.12 v 0.13 l -0.44,-0.23 v 0 z"
       id="path135"
       inkscape:connector-curvature="0"
       style="fill:#bfbfbf" />
    <path
       class="c"
       d="m 185.53,33.56 0.42,0.18 a 0.35,0.35 0 0 1 -0.44,-0.13 z"
       id="path137"
       inkscape:connector-curvature="0"
       style="fill:#bfbfbf" />
    <path
       class="c"
       d="m 186.07,50.72 v 0 a 0.48,0.48 0 0 1 0,0.35 v 0 A 2.11,2.11 0 0 1 186,50.85 c 0,-0.07 0,-0.14 0.07,-0.13 z"
       id="path139"
       inkscape:connector-curvature="0"
       style="fill:#bfbfbf" />
    <path
       class="c"
       d="m 185.41,40 -0.22,0.05 c 0,0 -0.05,0 -0.06,0 -0.01,0 0,-0.07 0,-0.07 h 0.24 z"
       id="path141"
       inkscape:connector-curvature="0"
       style="fill:#bfbfbf" />
    <path
       class="c"
       d="m 183.57,30.62 c -0.1,0 -0.07,-0.1 -0.05,-0.16 a 0.19,0.19 0 0 1 0.08,-0.08 c 0,0 0.06,0 0.06,0 a 0.38,0.38 0 0 1 0,0.11 1,1 0 0 1 -0.09,0.13 z"
       id="path143"
       inkscape:connector-curvature="0"
       style="fill:#bfbfbf" />
    <path
       class="c"
       d="m 183.28,32.12 0.16,-0.05 0.08,0.1 -0.2,0.11 z"
       id="path145"
       inkscape:connector-curvature="0"
       style="fill:#bfbfbf" />
    <path
       class="c"
       d="m 185.46,34.32 0.08,-0.07 c 0,0.16 0.16,0.09 0.25,0.1 v 0.12 z"
       id="path147"
       inkscape:connector-curvature="0"
       style="fill:#bfbfbf" />
    <path
       class="c"
       d="m 186.36,52.09 c 0.08,0.07 0,0.11 0,0.14 l -0.12,-0.09 C 186.25,52 186.3,52 186.36,52.09 Z"
       id="path149"
       inkscape:connector-curvature="0"
       style="fill:#bfbfbf" />
    <path
       class="c"
       d="m 183.08,33.07 h -0.17 v 0 c 0,0 0.09,-0.07 0.09,-0.07 0,0 0.06,0 0.1,0.06 z"
       id="path151"
       inkscape:connector-curvature="0"
       style="fill:#bfbfbf" />
    <path
       class="c"
       d="m 186.18,41.26 v -0.14 h 0.09 c 0.04,0.07 0.01,0.12 -0.09,0.14 z"
       id="path153"
       inkscape:connector-curvature="0"
       style="fill:#bfbfbf" />
    <path
       class="c"
       d="m 175.15,31.8 v -0.18 l -0.19,-0.33 v 0 l 0.06,0.11 a 0.73,0.73 0 0 0 0.09,0.13 0.25,0.25 0 0 1 0,0.3 z"
       id="path155"
       inkscape:connector-curvature="0"
       style="fill:#bfbfbf" />
    <path
       class="c"
       d="m 188.92,48.25 c 0,0 0,-0.06 0,-0.08 a 1.1,1.1 0 0 1 0.19,-0.27 0.46,0.46 0 0 1 0,0.15 2,2 0 0 1 -0.16,0.21 z"
       id="path157"
       inkscape:connector-curvature="0"
       style="fill:#bfbfbf" />
    <path
       class="c"
       d="m 182.74,29.47 c -0.16,0.07 -0.31,0 -0.3,-0.19 0.11,0 0.14,0.22 0.3,0.19 z"
       id="path159"
       inkscape:connector-curvature="0"
       style="fill:#bfbfbf" />
    <path
       class="c"
       d="m 184.59,41.38 c 0,0.11 0.08,0.19 0,0.25 -0.12,-0.11 -0.12,-0.11 0,-0.25 z"
       id="path161"
       inkscape:connector-curvature="0"
       style="fill:#bfbfbf" />
  </g>
  <g
     class="b"
     id="g169"
     style="opacity:0.5"
     transform="matrix(0.16748535,0,0,0.16748535,-21.982501,2.6388272)">
    <path
       class="c"
       d="m 201.49,33.94 v 0 0.06 0.09 0 h 0.06 0.08 v 0 0.1 0 h -0.05 a 0.15,0.15 0 0 0 -0.06,0.1 0.62,0.62 0 0 0 0,0.15 q 0,0.08 -0.1,0.14 l -0.11,0.07 v 0 0 h 0.17 c 0,0 0,0 0.06,0.09 a 0.28,0.28 0 0 0 0.11,0.15 1,1 0 0 0 0.27,0.11 l 0.29,0.11 a 0.29,0.29 0 0 1 0.14,0.19 0.3,0.3 0 0 0 0.2,0.2 0.76,0.76 0 0 1 0.27,0.17 A 0.49,0.49 0 0 0 203,36 h 0.1 0.06 v 0 a 0.27,0.27 0 0 0 0.08,-0.17 0.33,0.33 0 0 1 0.2,-0.23 0.39,0.39 0 0 1 0.3,0 0.45,0.45 0 0 1 0.2,0.12 0.55,0.55 0 0 0 0.24,0.14 q 0.17,0.05 0.19,0.1 a 0.83,0.83 0 0 0 0.34,0.15 l 0.41,0.14 a 0.3,0.3 0 0 0 0.23,0 h 0.16 v 0 0.07 0.1 0.07 0 0 l 0.07,-0.08 0.07,-0.08 v 0 0 c 0,0 0.1,0.06 0.26,0.09 0.16,0.03 0.26,0.08 0.29,0.16 a 0.54,0.54 0 0 1 0,0.3 1.49,1.49 0 0 1 0,0.24 v 0.05 0.09 h -0.13 l -0.05,-0.05 a 0.17,0.17 0 0 1 0,-0.12 q 0,-0.08 0,-0.1 v 0 H 206 v 0 0 0.1 0 l 0.1,0.2 a 0.93,0.93 0 0 1 0.1,0.34 0.23,0.23 0 0 0 0.06,0.18 1.16,1.16 0 0 1 0.19,0.34 1.12,1.12 0 0 1 0.13,0.42 0.42,0.42 0 0 0 0.12,0.27 0.65,0.65 0 0 1 0.15,0.27 1.14,1.14 0 0 1 0,0.33 1,1 0 0 0 0,0.28 0.72,0.72 0 0 0 0.17,0.23 0.61,0.61 0 0 1 0.17,0.37 0.68,0.68 0 0 0 0.17,0.4 2.4,2.4 0 0 0 0.23,0.24 2.39,2.39 0 0 1 0.23,0.26 2.22,2.22 0 0 0 0.22,0.25 0.15,0.15 0 0 1 0,0.16 q 0,0.1 -0.07,0.12 a 0.12,0.12 0 0 0 -0.06,0.08 v 0.06 H 208 a 0.26,0.26 0 0 1 0.14,0.1 0.31,0.31 0 0 0 0.2,0.1 0.42,0.42 0 0 0 0.18,0 h 0.16 q 0.13,0 0.16,0 v 0 c 0,0 0,0 0.12,0 0.12,0 0.13,0 0.15,0 0.02,0 0.08,-0.05 0.19,0 a 0.43,0.43 0 0 0 0.26,0 0.25,0.25 0 0 1 0.14,0 h 0.11 v 0.09 a 0.26,0.26 0 0 0 0,0.09 v 0 0.11 0.11 l -0.3,0.47 a 7.47,7.47 0 0 1 -0.59,0.81 2.87,2.87 0 0 1 -0.6,0.55 q -0.31,0.2 -0.51,0.31 a 3.49,3.49 0 0 0 -0.58,0.43 2.56,2.56 0 0 1 -0.46,0.35 0.18,0.18 0 0 0 -0.11,0.13 0.45,0.45 0 0 1 -0.12,0.19 q -0.09,0.09 -0.14,0.07 c 0,0 -0.06,0 -0.08,0.08 a 1.37,1.37 0 0 0 0,0.18 0.85,0.85 0 0 0 0,0.23 1.15,1.15 0 0 1 0,0.31 1.07,1.07 0 0 0 0,0.34 0.57,0.57 0 0 0 0.08,0.25 0.38,0.38 0 0 1 0,0.27 l -0.12,0.63 a 0.91,0.91 0 0 1 -0.23,0.55 1.88,1.88 0 0 1 -0.54,0.23 2.71,2.71 0 0 0 -0.55,0.22 1.08,1.08 0 0 1 -0.23,0.11 0.1,0.1 0 0 0 -0.08,0.06 0.05,0.05 0 0 1 -0.07,0 c 0,0 -0.06,0 -0.08,0.13 a 0.72,0.72 0 0 0 0,0.24 1.08,1.08 0 0 1 0,0.28 1,1 0 0 1 -0.07,0.32 q -0.06,0.14 -0.39,0.22 a 1.65,1.65 0 0 0 -0.35,0.1 0.8,0.8 0 0 0 -0.07,0.23 0.57,0.57 0 0 1 -0.11,0.26 0.88,0.88 0 0 0 -0.12,0.15 0.26,0.26 0 0 1 -0.15,0.12 0.86,0.86 0 0 0 -0.28,0.2 3.44,3.44 0 0 1 -0.35,0.29 2.3,2.3 0 0 1 -0.36,0.22 l -0.28,0.12 a 1,1 0 0 1 -0.27,0 0.56,0.56 0 0 0 -0.23,0 c 0,0 -0.05,0 -0.1,0 a 1.07,1.07 0 0 0 -0.27,-0.06 0.63,0.63 0 0 0 -0.25,0 0.52,0.52 0 0 1 -0.22,0 h -0.2 -0.25 l -0.09,-0.13 a 0.62,0.62 0 0 1 -0.1,-0.21 q 0,-0.08 0,-0.08 a 0.1,0.1 0 0 0 0.08,0 v 0 0 l -0.1,-0.24 a 1.12,1.12 0 0 1 -0.09,-0.35 0.56,0.56 0 0 0 -0.07,-0.25 q -0.07,-0.14 -0.17,-0.37 a 1.21,1.21 0 0 1 -0.1,-0.49 q 0,-0.26 0,-0.49 a 1.32,1.32 0 0 0 -0.11,-0.58 q -0.14,-0.35 -0.22,-0.63 a 1.24,1.24 0 0 1 0,-0.55 1.19,1.19 0 0 1 0.07,-0.31 2.15,2.15 0 0 0 0.12,-0.25 0.91,0.91 0 0 1 0.27,-0.35 0.53,0.53 0 0 0 0.2,-0.26 0.51,0.51 0 0 0 0,-0.26 0.93,0.93 0 0 1 0,-0.35 1.57,1.57 0 0 0 0,-0.56 l -0.11,-0.48 a 1.43,1.43 0 0 0 -0.19,-0.39 4.12,4.12 0 0 1 -0.25,-0.46 0.78,0.78 0 0 1 -0.09,-0.29 q 0,-0.08 0,-0.09 c 0,0 0,0 0.06,-0.07 a 1.18,1.18 0 0 0 0.08,-0.18 q 0,-0.12 0,-0.14 c 0,0 0,-0.06 0.05,-0.13 a 0.92,0.92 0 0 0 0.11,-0.26 0.42,0.42 0 0 0 0,-0.18 0.06,0.06 0 0 1 0,-0.07 v 0 0 h -0.1 c 0,0 -0.07,0 -0.12,-0.1 -0.05,-0.1 -0.07,-0.11 -0.09,-0.1 h -0.12 -0.29 q -0.2,0 -0.22,-0.06 a 0.93,0.93 0 0 1 -0.07,-0.17 1.51,1.51 0 0 0 -0.09,-0.23 q 0,-0.09 -0.41,-0.16 a 1.17,1.17 0 0 0 -0.45,0 0.66,0.66 0 0 1 -0.2,0 1.47,1.47 0 0 0 -0.3,0.06 l -0.26,0.06 a 0.28,0.28 0 0 1 -0.16,-0.05 1.29,1.29 0 0 0 -0.36,-0.11 1.63,1.63 0 0 0 -0.48,0 1.85,1.85 0 0 1 -0.36,0 0.57,0.57 0 0 1 -0.28,-0.13 1,1 0 0 1 -0.22,-0.24 1.36,1.36 0 0 0 -0.14,-0.19 l -0.29,-0.36 a 0.83,0.83 0 0 1 -0.22,-0.43 1.29,1.29 0 0 0 0,-0.21 0.47,0.47 0 0 0 -0.11,-0.2 0.39,0.39 0 0 1 -0.1,-0.17 1,1 0 0 0 -0.15,-0.28 0.63,0.63 0 0 1 -0.14,-0.34 0.28,0.28 0 0 1 0,-0.14 L 193.85,39 a 0.21,0.21 0 0 0 0,-0.17 v -0.11 -0.05 0 0 0 0 -0.06 a 2.72,2.72 0 0 0 0.18,-0.31 1.64,1.64 0 0 0 0.18,-0.45 0.59,0.59 0 0 1 0.06,-0.2 0.26,0.26 0 0 0 0,-0.12 0.18,0.18 0 0 0 0,-0.13 0.41,0.41 0 0 1 0,-0.21 q 0,-0.18 0.11,-0.21 a 0.64,0.64 0 0 0 0.21,-0.21 0.55,0.55 0 0 1 0.24,-0.22 0.65,0.65 0 0 0 0.26,-0.22 q 0.15,-0.19 0.23,-0.19 0.08,0 0.22,-0.16 a 0.35,0.35 0 0 1 0.28,-0.14 0.76,0.76 0 0 0 0.25,0 1.06,1.06 0 0 0 0.29,-0.14 0.57,0.57 0 0 0 0.24,-0.27 0.6,0.6 0 0 1 0.12,-0.21 0.77,0.77 0 0 0 0.12,-0.15 0.7,0.7 0 0 1 0.35,-0.17 1.32,1.32 0 0 0 0.49,-0.25 l 0.2,-0.17 v 0 l 0.06,0.1 a 0.39,0.39 0 0 0 0.26,0.15 1,1 0 0 1 0.26,0.09 c 0,0 0.13,0 0.27,0 a 1,1 0 0 1 0.25,-0.07 0.32,0.32 0 0 0 0.14,0 1.27,1.27 0 0 1 0.49,0 1.14,1.14 0 0 1 0.42,0.08 c 0,0 0.07,0 0.19,0 0.12,0 0.18,0 0.18,0 0,0 0,0 0.08,0 a 0.18,0.18 0 0 1 0.12,0 0.33,0.33 0 0 0 0.16,0 h 0.2 z"
       id="path165"
       inkscape:connector-curvature="0"
       style="fill:#bfbfbf" />
    <path
       class="c"
       d="m 208.51,48.46 v 0 0 h -0.06 c 0,0 0,0 -0.05,0 V 48.4 h -0.05 v 0.13 a 0.48,0.48 0 0 1 -0.07,0.17 0.69,0.69 0 0 0 -0.09,0.22 0.61,0.61 0 0 1 -0.12,0.25 7.88,7.88 0 0 0 -0.45,0.65 l -0.43,0.64 a 0.35,0.35 0 0 1 -0.11,0.1 0.54,0.54 0 0 1 -0.2,0 h -0.22 a 0.3,0.3 0 0 1 -0.18,-0.07 0.35,0.35 0 0 1 -0.12,-0.26 1.29,1.29 0 0 1 0,-0.41 0.85,0.85 0 0 1 0.25,-0.42 0.55,0.55 0 0 0 0.2,-0.32 2.38,2.38 0 0 1 0,-0.34 0.56,0.56 0 0 1 0.1,-0.27 0.35,0.35 0 0 0 0.08,-0.11 c 0,0 0.06,-0.06 0.14,-0.06 0.08,0 0.11,0 0.12,0 0.01,0 0.06,0 0.17,0 a 0.23,0.23 0 0 0 0.23,0 0.26,0.26 0 0 1 0.13,-0.09 c 0,0 0.09,-0.05 0.15,-0.13 a 0.77,0.77 0 0 0 0.1,-0.18 0.1,0.1 0 0 1 0.09,-0.07 h 0.12 a 0.23,0.23 0 0 0 0.09,-0.11 q 0,-0.09 0.06,-0.1 c 0,0 0,0 0.08,0.1 a 0.82,0.82 0 0 1 0.06,0.4 q -0.01,0.29 -0.02,0.34 z"
       id="path167"
       inkscape:connector-curvature="0"
       style="fill:#bfbfbf" />
  </g>
  <path
     class="d"
     d="m 10.265129,7.2898972 c -0.3718177,0 -0.8625497,0.5443266 -1.0250104,1.287962 0.4002907,0 0.7235367,0.2344794 0.7235367,0.5225543 0,0.288075 -0.318222,0.5158549 -0.7118117,0.5208797 0.1825577,0.7268868 0.6933887,1.2544658 1.0132854,1.2544658 0.39359,0 1.08028,-0.802255 1.08028,-1.7920937 0,-0.9898383 -0.62807,-1.7937681 -1.08028,-1.7937681 z"
     id="path171"
     inkscape:connector-curvature="0"
     style="fill:#142d19;stroke-width:0.16748536" />
  <path
     class="e"
     d="M 13.408828,8.6683015 C 13.288239,8.7068245 10.327098,7.1391599 6.7831086,8.85421 L 6.5871506,7.8308744 c 0,0 3.2240927,-2.0098253 6.8468014,0.7185124 z"
     id="path173"
     inkscape:connector-curvature="0"
     style="opacity:0.1;stroke-width:0.16748536" />
  <path
     class="f"
     d="m 14.147439,14.650877 c 0,0 -0.711813,0.743633 -2.733361,0.937915 1.452098,-0.797228 1.733473,-1.237712 2.17731,-1.976321 0.703438,-1.172394 1.403527,-0.917817 1.490619,-0.401964 0.067,0.39024 -0.242853,1.210916 -0.937917,1.617905 z"
     id="path175"
     inkscape:connector-curvature="0"
     style="fill:url(#linearGradient6973);stroke-width:0.16748536" />
  <path
     class="g"
     d="m 5.5135692,11.393291 c 0,0 -0.4689594,-1.281266 -2.1153396,-2.1555398 C 2.1035674,8.5510614 1.4286018,8.7101729 0.20595814,7.3769893 c 0,0 0.22945528,1.5358403 1.97967656,2.5122805 0,0 -0.1859085,0.1507362 -0.602947,-0.053596 0.02345,0.1222649 0.065321,0.7536842 0.8826479,1.0953542 0.8173287,0.341673 1.7937688,-0.185909 3.0482336,0.462263 z"
     id="path177"
     inkscape:connector-curvature="0"
     style="fill:url(#b);stroke-width:0.16748536" />
  <path
     class="h"
     d="m 1.6932283,3.6822604 c 1.0903301,0.6548679 1.4705212,-0.271326 2.6429187,0.6699414 0,0 -0.271326,-0.5979229 -0.7721072,-0.6381188 0,0 1.2460914,-0.7051135 1.8423389,-0.095467 0.5962483,0.6096464 0.6582173,1.7284498 1.9210569,1.9210577 0,0 -1.8557378,0.3902415 -3.3497074,0.152412 A 2.9326686,2.9326686 0 0 1 1.6932283,3.6822604 Z"
     id="path179"
     inkscape:connector-curvature="0"
     style="fill:url(#c);stroke-width:0.16748536" />
  <path
     class="i"
     d="m 12.457511,5.9768112 c 0,0 -1.517416,-0.4203886 -2.4771067,-0.4321128 C 9.0207136,5.5329734 8.6103736,5.1728807 8.3222996,4.8178119 7.9973776,4.4191964 7.8081186,3.2987191 6.6993656,2.8783313 c 0,0 1.25949,-0.3617689 2.148837,0.1205894 A 0.68166541,0.68166541 0 0 0 8.6807176,2.6388272 c 0,0 1.6463804,-0.093792 2.0751434,0.9881629 0.482358,1.2293431 0.802254,1.4906203 1.70165,2.3498211 z"
     id="path181"
     inkscape:connector-curvature="0"
     style="fill:url(#d);stroke-width:0.16748536" />
  <path
     class="a"
     d="M 17.311237,13.419863 A 18.446837,18.446837 0 0 0 15.636384,10.107001 7.9036343,7.9036343 0 0 0 14.614723,8.8793331 6.325922,6.325922 0 0 0 13.325086,7.9179665 7.7361488,7.7361488 0 0 0 10.268479,7.0152211 16.401841,16.401841 0 0 0 7.1231036,7.0570918 L 6.3493206,7.1408348 5.964105,7.1894088 5.5906125,7.2279318 A 7.3693558,7.3693558 0 0 1 4.1066924,7.2195541 4.4450613,4.4450613 0 0 1 1.4654485,6.0253828 5.1669232,5.1669232 0 0 1 0.05354624,3.3958616 v 0 a 0.01004912,0.01004912 0 0 0 -0.020095,0 4.9106707,4.9106707 0 0 0 1.17239736,2.865676 4.460135,4.460135 0 0 0 2.0282475,1.2980116 v 0 c 0.837427,0.2746761 2.6931649,1.2511155 3.6361075,3.1822218 v 0 a 3.6964018,3.6964018 0 0 0 3.3497074,2.163915 3.5624135,3.5624135 0 0 0 2.026573,-0.654865 v 0 c 0.445511,-0.29645 3.024785,-2.3029308 4.019648,0.09044 0.103841,0.283048 0.334971,0.99151 0.410339,1.281259 a 14.695165,14.695165 0 0 1 0.484033,2.709904 v -0.01005 a 0.77043262,0.77043262 0 0 1 0.334971,-0.596246 0.8608747,0.8608747 0 0 1 0.473983,-0.175859 c -0.179209,-0.720184 -0.398615,-1.43032 -0.658218,-2.130407 z m -7.08128,-1.019982 C 8.4780606,12.414951 7.0477356,10.91763 7.0259626,9.0635669 a 3.5506895,3.5506895 0 0 1 0.184233,-1.147275 0.52757885,0.52757885 0 0 1 0.453886,-0.2847249 16.421939,16.421939 0 0 1 2.5491264,-0.035175 6.9456179,6.9456179 0 0 1 2.847251,0.7938803 l 0.09379,0.05527 a 0.44886076,0.44886076 0 0 1 0.21773,0.366793 c 0,0.065321 0.0084,0.1323136 0.0084,0.1993081 0.01507,1.8523886 -1.398503,3.3731606 -3.148725,3.3882346 z"
     id="path183"
     inkscape:connector-curvature="0"
     style="fill:#194d23;stroke-width:0.16748536" />
  <path
     class="j"
     d="m 16.25273,8.5694851 c 0,0 -0.433787,-0.6498431 -1.507368,-1.4721966 C 13.572965,6.1995671 13.254742,4.9199776 13.055435,4.5665836 12.856127,4.2131888 12.643421,3.6437391 12.13259,3.2166518 c 0,0 2.472084,0.5778238 2.895822,1.5927852 l 0.05025,-0.2897496 a 1.7284489,1.7284489 0 0 1 0.700089,1.3398838 l 0.137338,-0.3684684 a 4.6895897,4.6895897 0 0 1 0.324922,1.8590887 5.8150914,5.8150914 0 0 0 0.01172,1.2192936 z"
     id="path185"
     inkscape:connector-curvature="0"
     style="fill:url(#e);stroke-width:0.16748536" />
  <path
     class="k"
     d="M 10.211534,14.404675"
     id="path187"
     inkscape:connector-curvature="0"
     style="fill:#809f3f;stroke-width:0.16748536" />
  <path
     class="k"
     d="M 10.712315,14.384576"
     id="path189"
     inkscape:connector-curvature="0"
     style="fill:#809f3f;stroke-width:0.16748536" />
  <path
     class="l"
     d="m 7.3676326,13.470109 a 5.1635734,5.1635734 0 0 0 -3.8387648,-0.93959 2.5122803,2.5122803 0 0 0 -0.5610763,0.09547 6.1165653,6.1165653 0 0 0 3.5825121,2.297892 0.51418006,0.51418006 0 0 1 -0.2612771,0.350044 c 3.5473408,0.808952 5.1736225,-0.956339 5.1736225,-0.956339 0,0 -2.2928744,0.463934 -4.0950164,-0.847473 z"
     id="path191"
     inkscape:connector-curvature="0"
     style="fill:url(#f);stroke-width:0.16748536" />
  <path
     class="m"
     d="m 17.209072,6.7154219 a 4.4953069,4.4953069 0 0 1 0.08542,1.5793872 c -0.115565,0.9295439 -0.115565,1.3281587 -0.02009,1.5291416 0.05025,0.1038404 0.185908,0.3550683 0.267976,0.5192043 0,0 0.731911,-0.9077703 0.408664,-1.7351486 l -0.07202,0.060299 A 4.1184649,4.1184649 0 0 0 17.209077,6.7154257 Z"
     id="path193"
     inkscape:connector-curvature="0"
     style="fill:url(#g);stroke-width:0.16748536" />
</svg>
